<?xml version="1.0" encoding="UTF-8" standalone="no"?>
<svg
   style="clip-rule:evenodd;fill-rule:evenodd;stroke-linejoin:round;stroke-miterlimit:2"
   version="1.1"
   viewBox="0 0 500 500"
   height="28"
   xml:space="preserve"
   id="svg4"
   xmlns="http://www.w3.org/2000/svg"
   xmlns:svg="http://www.w3.org/2000/svg"><defs
     id="defs8" /><path
     d="M 501.303,55.965 C 495.416,33.935 478.068,16.588 456.038,10.7 416.106,0 256,0 256,0 256,0 95.893,0 55.961,10.7 33.935,16.588 16.584,33.935 10.697,55.965 0,95.893 0,179.203 0,179.203 c 0,0 0,83.308 10.697,123.232 5.887,22.03 23.238,39.382 45.264,45.269 C 95.893,358.4 256,358.4 256,358.4 c 0,0 160.106,0 200.038,-10.696 22.03,-5.887 39.378,-23.239 45.265,-45.269 10.696,-39.924 10.696,-123.232 10.696,-123.232 0,0 0,-83.31 -10.696,-123.238 z M 204.797,256.004 V 102.401 l 133.019,76.802 z"
     style="fill-rule:nonzero"
     id="path2" /></svg>
