<?xml version="1.0" encoding="UTF-8" standalone="no"?>
<svg
   height="20"
   style="clip-rule:evenodd;fill-rule:evenodd;stroke-linejoin:round;stroke-miterlimit:2"
   version="1.1"
   viewBox="0 0 512 114.3"
   width="100"
   xml:space="preserve"
   id="svg20"
   xmlns="http://www.w3.org/2000/svg"
   xmlns:svg="http://www.w3.org/2000/svg"><defs
     id="defs24" /><g
     id="g18"
     transform="translate(0,-198.85)"><path
       d="m 255.111,291.623 c 0.894,-2.333 1.343,-6.148 1.343,-11.442 v -22.304 c 0,-5.137 -0.449,-8.892 -1.343,-11.268 -0.895,-2.373 -2.472,-3.561 -4.729,-3.561 -2.18,0 -3.719,1.188 -4.613,3.561 -0.895,2.376 -1.342,6.131 -1.342,11.268 v 22.304 c 0,5.294 0.427,9.109 1.285,11.442 0.854,2.336 2.411,3.503 4.67,3.503 2.257,0 3.834,-1.167 4.729,-3.503 z m -18.098,11.211 c -3.233,-2.177 -5.53,-5.566 -6.89,-10.16 -1.363,-4.591 -2.043,-10.703 -2.043,-18.332 V 263.95 c 0,-7.707 0.777,-13.897 2.334,-18.566 1.557,-4.671 3.988,-8.077 7.299,-10.218 3.308,-2.14 7.648,-3.211 13.02,-3.211 5.293,0 9.535,1.09 12.727,3.27 3.191,2.179 5.527,5.586 7.007,10.216 1.477,4.634 2.218,10.802 2.218,18.509 v 10.392 c 0,7.629 -0.721,13.761 -2.16,18.392 -1.441,4.633 -3.777,8.018 -7.007,10.158 -3.231,2.141 -7.609,3.211 -13.136,3.211 -5.684,0 -10.141,-1.09 -13.369,-3.269 z"
       style="fill-rule:nonzero"
       id="path2" /><path
       d="m 487.068,244.385 c -0.816,1.012 -1.363,2.667 -1.634,4.962 -0.274,2.297 -0.407,5.781 -0.407,10.452 v 5.139 h 11.791 v -5.139 c 0,-4.593 -0.155,-8.077 -0.466,-10.452 -0.312,-2.373 -0.875,-4.045 -1.692,-5.02 -0.819,-0.973 -2.084,-1.459 -3.796,-1.459 -1.714,0 -2.978,0.506 -3.796,1.517 z m -2.041,30.128 v 3.62 c 0,4.594 0.133,8.037 0.407,10.333 0.271,2.297 0.835,3.972 1.693,5.023 0.857,1.05 2.178,1.577 3.971,1.577 2.411,0 4.067,-0.936 4.962,-2.804 0.894,-1.869 1.381,-4.981 1.459,-9.342 l 13.896,0.817 c 0.078,0.625 0.117,1.48 0.117,2.569 0,6.618 -1.809,11.562 -5.43,14.831 -3.618,3.269 -8.739,4.904 -15.355,4.904 -7.939,0 -13.507,-2.49 -16.698,-7.474 -3.193,-4.98 -4.789,-12.687 -4.789,-23.12 v -12.496 c 0,-10.742 1.655,-18.583 4.964,-23.528 3.308,-4.944 8.972,-7.416 16.991,-7.416 5.525,0 9.769,1.012 12.727,3.037 2.957,2.025 5.041,5.177 6.248,9.458 1.207,4.282 1.81,10.199 1.81,17.749 v 12.262 z"
       style="fill-rule:nonzero"
       id="path4" /><path
       d="M 197.773,273.172 179.44,206.963 h 15.997 l 6.422,30.009 c 1.636,7.398 2.841,13.703 3.62,18.917 h 0.467 c 0.545,-3.736 1.752,-10.001 3.62,-18.8 l 6.656,-30.126 h 15.998 l -18.567,66.209 v 31.763 h -15.88 z"
       style="fill-rule:nonzero"
       id="path6" /><path
       d="m 324.715,233.355 v 71.58 h -12.612 l -1.402,-8.757 h -0.349 c -3.426,6.617 -8.565,9.925 -15.414,9.925 -4.749,0 -8.252,-1.556 -10.51,-4.67 -2.258,-3.113 -3.386,-7.98 -3.386,-14.596 v -53.482 h 16.115 v 52.546 c 0,3.194 0.351,5.471 1.051,6.831 0.7,1.364 1.868,2.045 3.503,2.045 1.402,0 2.744,-0.428 4.028,-1.285 1.285,-0.857 2.238,-1.945 2.862,-3.269 v -56.868 z"
       style="fill-rule:nonzero"
       id="path8" /><path
       d="m 407.371,233.355 v 71.58 H 394.76 l -1.402,-8.757 h -0.348 c -3.429,6.617 -8.566,9.925 -15.416,9.925 -4.748,0 -8.251,-1.556 -10.509,-4.67 -2.258,-3.113 -3.386,-7.98 -3.386,-14.596 v -53.482 h 16.114 v 52.546 c 0,3.194 0.35,5.471 1.05,6.831 0.702,1.364 1.87,2.045 3.504,2.045 1.402,0 2.745,-0.428 4.029,-1.285 1.284,-0.857 2.237,-1.945 2.861,-3.269 v -56.868 z"
       style="fill-rule:nonzero"
       id="path10" /><path
       d="m 368.503,219.926 h -15.998 v 85.009 h -15.763 v -85.009 h -15.998 v -12.962 h 47.759 z"
       style="fill-rule:nonzero"
       id="path12" /><path
       d="m 445.934,273.995 c 0,5.217 -0.217,9.304 -0.644,12.261 -0.428,2.96 -1.148,5.062 -2.16,6.305 -1.012,1.246 -2.377,1.869 -4.086,1.869 -1.326,0 -2.551,-0.311 -3.679,-0.934 -1.13,-0.623 -2.043,-1.557 -2.745,-2.803 v -40.636 c 0.545,-1.945 1.479,-3.542 2.803,-4.788 1.324,-1.243 2.762,-1.868 4.32,-1.868 1.635,0 2.899,0.643 3.795,1.926 0.894,1.285 1.518,3.445 1.869,6.483 0.351,3.035 0.527,7.355 0.527,12.96 z m 14.77,-29.197 c -0.975,-4.514 -2.551,-7.784 -4.73,-9.81 -2.18,-2.022 -5.177,-3.035 -8.991,-3.035 -2.958,0 -5.721,0.838 -8.29,2.511 -2.569,1.674 -4.555,3.873 -5.956,6.597 h -0.118 l 10e-4,-37.717 h -15.529 v 101.59 h 13.31 l 1.636,-6.772 h 0.349 c 1.245,2.413 3.113,4.32 5.605,5.722 2.491,1.401 5.256,2.102 8.292,2.102 5.448,0 9.457,-2.512 12.027,-7.532 2.569,-5.022 3.854,-12.863 3.854,-23.53 v -11.325 c 0,-8.018 -0.488,-14.285 -1.46,-18.801 z"
       style="fill-rule:nonzero"
       id="path14" /><path
       d="m 159.875,216.698 c -1.878,-7.026 -7.41,-12.558 -14.436,-14.436 -12.735,-3.412 -63.796,-3.412 -63.796,-3.412 0,0 -51.061,0 -63.796,3.412 -7.024,1.878 -12.558,7.41 -14.436,14.436 C 0,229.432 0,256.001 0,256.001 c 0,0 0,26.568 3.411,39.301 1.878,7.026 7.412,12.56 14.436,14.437 12.735,3.411 63.796,3.411 63.796,3.411 0,0 51.061,0 63.796,-3.411 7.026,-1.877 12.558,-7.411 14.436,-14.437 3.411,-12.733 3.411,-39.301 3.411,-39.301 0,0 0,-26.569 -3.411,-39.303 z m -94.561,63.796 v -48.987 l 42.422,24.494 z"
       style="fill-rule:nonzero"
       id="path16" /></g></svg>
