<?xml version="1.0" encoding="utf-8"?>
<!-- Generator: Adobe Illustrator 25.3.1, SVG Export Plug-In . SVG Version: 6.00 Build 0)  -->
<svg version="1.1" id="Layer_1" xmlns="http://www.w3.org/2000/svg" xmlns:xlink="http://www.w3.org/1999/xlink" x="0px" y="0px"
	 viewBox="0 0 533.7 128.5" style="enable-background:new 0 0 533.7 128.5;" xml:space="preserve">
<style type="text/css">
	.st0{fill-rule:evenodd;clip-rule:evenodd;fill:#ffffff;}
	.st1{fill:#ffffff;}
</style>
<path class="st0" d="M0,49.5c1.8-3.2,4.8-5.6,8.3-6.8c3.6-1.2,24.3,3.8,62.3,15c11,37.6,15.9,58.2,14.7,62c-1,3.6-3.3,6.7-6.3,8.8
	C62.5,93.9,53.9,76.1,53,75.3S34.5,65.9,0,49.5"/>
<path class="st0" d="M10.1,9.7c2.6-4.4,6.6-7.8,11.5-9.4c4.9-1.7,33.6,5.2,86,20.6c15.1,51.8,21.9,80.4,20.3,85.6
	c-1.4,4.9-4.4,9.2-8.6,12.2c-22.9-47.8-34.8-72.3-36-73.5S57.8,32.3,10.1,9.7"/>
<path class="st1" d="M165.2,28h12.3l22.6,39.7L222.6,28h12.8v66H224V45.7l-21,37h-6.3l-20.6-36.4V94h-10.9V28z"/>
<path class="st1" d="M245.5,81.5c0-8.9,6.1-14.3,16.3-14.3c4.2,0,8.3,0.9,12.1,2.6v-1.1c0-7-3.1-10-10.4-10
	c-5.2-0.1-10.3,1.8-14.3,5.2v-9.8c4-3,9.6-4.6,16-4.6c12.9,0,19.5,6.1,19.5,18.2V94h-8l-1.5-5.5c-3.4,4.3-8.6,6.7-14.8,6.7
	C251.1,95.2,245.5,89.9,245.5,81.5z M273.9,80.6v-3.1c-3-1.6-6.4-2.5-9.9-2.5c-5.4,0-8,2.1-8,5.8s2.4,5.8,7.2,5.8
	C267.7,86.6,271.2,84.6,273.9,80.6z"/>
<path class="st1" d="M295.5,50.7h8l1.2,5.7c3.6-4.6,8.3-6.9,14.6-6.9c12.6,0,21.2,9.1,21.2,22.9s-8.8,22.8-20.9,22.8
	c-5.7,0-10.1-2-13.3-5.6v27.1h-10.8L295.5,50.7z M329.5,72.4c0-7.9-4.8-13.1-12.2-13.1c-4.5-0.1-8.7,2.2-11,6v14.2
	c2.4,3.7,6.6,6,11,5.9C324.7,85.4,329.5,80.2,329.5,72.4z"/>
<path class="st1" d="M342.4,50.7h11.4l8.6,27.6l9.4-27.6h7.7l9.6,28.2l8.7-28.2h10.8L393.9,94h-9.1l-9.3-27.2L366.2,94h-9.1
	L342.4,50.7z"/>
<path class="st1" d="M410.6,81.5c0-8.9,6.1-14.3,16.3-14.3c4.2,0,8.3,0.9,12.1,2.6v-1.1c0-7-3.1-10-10.4-10
	c-5.2-0.1-10.3,1.8-14.3,5.2v-9.8c4-3,9.6-4.6,16-4.6c12.9,0,19.5,6.1,19.5,18.2V94h-8l-1.5-5.5c-3.4,4.3-8.6,6.7-14.8,6.7
	C416.2,95.2,410.6,89.9,410.6,81.5z M439,80.6v-3.1c-3-1.6-6.4-2.5-9.9-2.5c-5.4,0-8,2.1-8,5.8s2.4,5.8,7.2,5.8
	C432.8,86.6,436.3,84.6,439,80.6L439,80.6z"/>
<path class="st1" d="M460.5,50.7h8l1.6,7.5c3-6,7.3-8.7,13.3-8.7c1,0,2,0.1,3,0.3v11.1c-1.1-0.2-2.2-0.3-3.3-0.3
	c-5.7,0-9.7,2.8-11.8,8.7V94h-10.8L460.5,50.7z"/>
<path class="st1" d="M490.3,72.1c0-13.7,8.8-22.6,22.4-22.6c12.8,0,21,8,21,20.3c0,2-0.2,4.1-0.5,6.1h-31.6
	c1.3,6.5,6.5,10.1,14.9,10.1c5.4,0.1,10.7-1.8,14.8-5.3v10.1c-4.7,3-10.2,4.6-15.8,4.4C500,95.2,490.3,86.4,490.3,72.1z M523.6,68
	c-0.9-6-4.8-9.3-10.9-9.3c-6.1,0-9.9,3.3-11.1,9.3H523.6z"/>
</svg>
